<mxfile host="app.diagrams.net" modified="2023-10-21T09:20:27.314Z" agent="Mozilla/5.0 (X11; Linux x86_64; rv:109.0) Gecko/20100101 Firefox/118.0" etag="eiVQ4MQwAJY8oCaWnCuW" version="21.3.5" type="device">
  <diagram name="Page-1" id="4j5xUmTMNorFh1HsHcj_">
    <mxGraphModel dx="1179" dy="762" grid="1" gridSize="10" guides="1" tooltips="1" connect="1" arrows="1" fold="1" page="1" pageScale="1" pageWidth="1169" pageHeight="827" math="0" shadow="0">
      <root>
        <mxCell id="0" />
        <mxCell id="1" parent="0" />
        <mxCell id="2heljNcSoUlwW3z5B35L-23" style="edgeStyle=orthogonalEdgeStyle;rounded=0;orthogonalLoop=1;jettySize=auto;html=1;exitX=0.75;exitY=1;exitDx=0;exitDy=0;entryX=0.351;entryY=-0.011;entryDx=0;entryDy=0;strokeWidth=5;endArrow=block;endFill=1;entryPerimeter=0;" edge="1" parent="1" source="2heljNcSoUlwW3z5B35L-2" target="2heljNcSoUlwW3z5B35L-10">
          <mxGeometry relative="1" as="geometry" />
        </mxCell>
        <mxCell id="2heljNcSoUlwW3z5B35L-30" style="edgeStyle=orthogonalEdgeStyle;rounded=0;orthogonalLoop=1;jettySize=auto;html=1;exitX=0.153;exitY=1.025;exitDx=0;exitDy=0;exitPerimeter=0;entryX=0.153;entryY=-0.019;entryDx=0;entryDy=0;entryPerimeter=0;strokeWidth=5;endArrow=block;endFill=1;" edge="1" parent="1" source="2heljNcSoUlwW3z5B35L-2" target="2heljNcSoUlwW3z5B35L-11">
          <mxGeometry relative="1" as="geometry">
            <mxPoint x="340" y="460" as="targetPoint" />
          </mxGeometry>
        </mxCell>
        <mxCell id="2heljNcSoUlwW3z5B35L-2" value="Application Layer" style="rounded=1;whiteSpace=wrap;html=1;align=left;verticalAlign=top;spacingLeft=23;arcSize=10;fillColor=#d5e8d4;strokeColor=#82b366;" vertex="1" parent="1">
          <mxGeometry x="270" y="90" width="460" height="120" as="geometry" />
        </mxCell>
        <mxCell id="2heljNcSoUlwW3z5B35L-9" value="External Services" style="rounded=1;whiteSpace=wrap;html=1;fillColor=#e1d5e7;strokeColor=#9673a6;" vertex="1" parent="1">
          <mxGeometry x="590" y="620" width="120" height="60" as="geometry" />
        </mxCell>
        <mxCell id="2heljNcSoUlwW3z5B35L-25" style="edgeStyle=orthogonalEdgeStyle;rounded=0;orthogonalLoop=1;jettySize=auto;html=1;exitX=0.354;exitY=1.03;exitDx=0;exitDy=0;entryX=0.75;entryY=0;entryDx=0;entryDy=0;strokeWidth=5;endArrow=block;endFill=1;exitPerimeter=0;" edge="1" parent="1" source="2heljNcSoUlwW3z5B35L-10" target="2heljNcSoUlwW3z5B35L-11">
          <mxGeometry relative="1" as="geometry" />
        </mxCell>
        <mxCell id="2heljNcSoUlwW3z5B35L-10" value="&lt;div&gt;Domain Layer&lt;br&gt;&lt;/div&gt;" style="rounded=1;whiteSpace=wrap;html=1;align=left;verticalAlign=top;spacingLeft=23;arcSize=10;fillColor=#dae8fc;strokeColor=#6c8ebf;" vertex="1" parent="1">
          <mxGeometry x="400" y="280" width="610" height="110" as="geometry" />
        </mxCell>
        <mxCell id="2heljNcSoUlwW3z5B35L-11" value="&lt;div&gt;Infrastructure Layer&lt;/div&gt;" style="rounded=1;whiteSpace=wrap;html=1;align=left;verticalAlign=top;spacingLeft=23;arcSize=10;fillColor=#ffe6cc;strokeColor=#d79b00;" vertex="1" parent="1">
          <mxGeometry x="270" y="470" width="460" height="110" as="geometry" />
        </mxCell>
        <mxCell id="2heljNcSoUlwW3z5B35L-12" value="Application Services" style="rounded=1;whiteSpace=wrap;html=1;fillColor=#60a917;fontColor=#ffffff;strokeColor=#2D7600;" vertex="1" parent="1">
          <mxGeometry x="290" y="130" width="120" height="60" as="geometry" />
        </mxCell>
        <mxCell id="2heljNcSoUlwW3z5B35L-14" value="&lt;div&gt;Workflows&lt;/div&gt;" style="rounded=1;whiteSpace=wrap;html=1;fillColor=#60a917;fontColor=#ffffff;strokeColor=#2D7600;" vertex="1" parent="1">
          <mxGeometry x="440" y="130" width="120" height="60" as="geometry" />
        </mxCell>
        <mxCell id="2heljNcSoUlwW3z5B35L-27" style="edgeStyle=orthogonalEdgeStyle;rounded=0;orthogonalLoop=1;jettySize=auto;html=1;entryX=0.5;entryY=0;entryDx=0;entryDy=0;" edge="1" parent="1" source="2heljNcSoUlwW3z5B35L-15" target="2heljNcSoUlwW3z5B35L-9">
          <mxGeometry relative="1" as="geometry" />
        </mxCell>
        <mxCell id="2heljNcSoUlwW3z5B35L-15" value="Service Agents" style="rounded=1;whiteSpace=wrap;html=1;fillColor=#f0a30a;fontColor=#000000;strokeColor=#BD7000;" vertex="1" parent="1">
          <mxGeometry x="590" y="500" width="120" height="60" as="geometry" />
        </mxCell>
        <mxCell id="2heljNcSoUlwW3z5B35L-16" value="Data Model" style="rounded=1;whiteSpace=wrap;html=1;fillColor=#f0a30a;fontColor=#000000;strokeColor=#BD7000;" vertex="1" parent="1">
          <mxGeometry x="440" y="500" width="120" height="60" as="geometry" />
        </mxCell>
        <mxCell id="2heljNcSoUlwW3z5B35L-17" value="Repository Contracts" style="rounded=1;whiteSpace=wrap;html=1;fillColor=#1ba1e2;fontColor=#ffffff;strokeColor=#006EAF;" vertex="1" parent="1">
          <mxGeometry x="870" y="310" width="120" height="60" as="geometry" />
        </mxCell>
        <mxCell id="2heljNcSoUlwW3z5B35L-18" value="Bases" style="rounded=1;whiteSpace=wrap;html=1;fillColor=#1ba1e2;fontColor=#ffffff;strokeColor=#006EAF;" vertex="1" parent="1">
          <mxGeometry x="720" y="310" width="120" height="60" as="geometry" />
        </mxCell>
        <mxCell id="2heljNcSoUlwW3z5B35L-19" value="Domain Services" style="rounded=1;whiteSpace=wrap;html=1;fillColor=#1ba1e2;fontColor=#ffffff;strokeColor=#006EAF;" vertex="1" parent="1">
          <mxGeometry x="570" y="310" width="120" height="60" as="geometry" />
        </mxCell>
        <mxCell id="2heljNcSoUlwW3z5B35L-20" value="Adapters" style="rounded=1;whiteSpace=wrap;html=1;fillColor=#60a917;fontColor=#ffffff;strokeColor=#2D7600;" vertex="1" parent="1">
          <mxGeometry x="590" y="130" width="120" height="60" as="geometry" />
        </mxCell>
        <mxCell id="2heljNcSoUlwW3z5B35L-21" value="Domain Entities" style="rounded=1;whiteSpace=wrap;html=1;fillColor=#1ba1e2;fontColor=#ffffff;strokeColor=#006EAF;" vertex="1" parent="1">
          <mxGeometry x="420" y="310" width="120" height="60" as="geometry" />
        </mxCell>
        <mxCell id="2heljNcSoUlwW3z5B35L-26" style="edgeStyle=orthogonalEdgeStyle;rounded=0;orthogonalLoop=1;jettySize=auto;html=1;exitX=0.5;exitY=1;exitDx=0;exitDy=0;" edge="1" parent="1" source="2heljNcSoUlwW3z5B35L-22">
          <mxGeometry relative="1" as="geometry">
            <mxPoint x="350" y="620" as="targetPoint" />
          </mxGeometry>
        </mxCell>
        <mxCell id="2heljNcSoUlwW3z5B35L-22" value="Repositories" style="rounded=1;whiteSpace=wrap;html=1;fillColor=#f0a30a;fontColor=#000000;strokeColor=#BD7000;" vertex="1" parent="1">
          <mxGeometry x="290" y="500" width="120" height="60" as="geometry" />
        </mxCell>
        <mxCell id="2heljNcSoUlwW3z5B35L-29" value="" style="group" vertex="1" connectable="0" parent="1">
          <mxGeometry x="290" y="620" width="100" height="150" as="geometry" />
        </mxCell>
        <mxCell id="2heljNcSoUlwW3z5B35L-28" value="Databases" style="text;strokeColor=none;align=center;fillColor=none;html=1;verticalAlign=middle;whiteSpace=wrap;rounded=0;" vertex="1" parent="2heljNcSoUlwW3z5B35L-29">
          <mxGeometry x="20" y="120" width="60" height="30" as="geometry" />
        </mxCell>
        <mxCell id="2heljNcSoUlwW3z5B35L-3" value="" style="shape=cylinder3;whiteSpace=wrap;html=1;boundedLbl=1;backgroundOutline=1;size=15;fillColor=#ffe6cc;strokeColor=#d79b00;" vertex="1" parent="2heljNcSoUlwW3z5B35L-29">
          <mxGeometry x="40" width="60" height="80" as="geometry" />
        </mxCell>
        <mxCell id="2heljNcSoUlwW3z5B35L-4" value="" style="shape=cylinder3;whiteSpace=wrap;html=1;boundedLbl=1;backgroundOutline=1;size=15;fillColor=#ffe6cc;strokeColor=#d79b00;" vertex="1" parent="2heljNcSoUlwW3z5B35L-29">
          <mxGeometry width="60" height="80" as="geometry" />
        </mxCell>
        <mxCell id="2heljNcSoUlwW3z5B35L-5" value="" style="shape=cylinder3;whiteSpace=wrap;html=1;boundedLbl=1;backgroundOutline=1;size=15;fillColor=#ffe6cc;strokeColor=#d79b00;" vertex="1" parent="2heljNcSoUlwW3z5B35L-29">
          <mxGeometry x="30" y="30" width="60" height="80" as="geometry" />
        </mxCell>
      </root>
    </mxGraphModel>
  </diagram>
</mxfile>
